<?xml version="1.0" encoding="UTF-8" standalone="no"?>
<!-- Created with Inkscape (http://www.inkscape.org/) -->

<svg
   xmlns:dc="http://purl.org/dc/elements/1.1/"
   xmlns:cc="http://creativecommons.org/ns#"
   xmlns:rdf="http://www.w3.org/1999/02/22-rdf-syntax-ns#"
   xmlns:svg="http://www.w3.org/2000/svg"
   xmlns="http://www.w3.org/2000/svg"
   xmlns:sodipodi="http://sodipodi.sourceforge.net/DTD/sodipodi-0.dtd"
   xmlns:inkscape="http://www.inkscape.org/namespaces/inkscape"
   width="230.18774mm"
   height="136.52217mm"
   viewBox="0 0 230.18774 136.52217"
   version="1.1"
   id="svg8"
   inkscape:version="0.92.4 (5da689c313, 2019-01-14)"
   sodipodi:docname="logo.svg">
  <defs
     id="defs2" />
  <sodipodi:namedview
     id="base"
     pagecolor="#ffffff"
     bordercolor="#666666"
     borderopacity="1.0"
     inkscape:pageopacity="0.0"
     inkscape:pageshadow="2"
     inkscape:zoom="0.7"
     inkscape:cx="385.55884"
     inkscape:cy="293.92162"
     inkscape:document-units="mm"
     inkscape:current-layer="layer1"
     showgrid="false"
     inkscape:window-width="2560"
     inkscape:window-height="1377"
     inkscape:window-x="1912"
     inkscape:window-y="-8"
     inkscape:window-maximized="1" />
  <metadata
     id="metadata5">
    <rdf:RDF>
      <cc:Work
         rdf:about="">
        <dc:format>image/svg+xml</dc:format>
        <dc:type
           rdf:resource="http://purl.org/dc/dcmitype/StillImage" />
        <dc:title></dc:title>
      </cc:Work>
    </rdf:RDF>
  </metadata>
  <g
     inkscape:label="Layer 1"
     inkscape:groupmode="layer"
     id="layer1"
     transform="translate(-254.22654,3.1886886)">
    <path
       id="path826"
       d="m 471.71429,-2.6609374 h -127 c -7.01146,0 -12.7,5.68854 -12.7,12.7000004 v 76.2 c 0,7.01145 5.68854,12.700003 12.7,12.700003 h 127 c 7.01146,0 12.7,-5.688553 12.7,-12.700003 v -76.2 c 0,-7.0114604 -5.68854,-12.7000004 -12.7,-12.7000004 z m -1.5875,88.9000004 h -123.825 c -0.87313,0 -1.5875,-0.71438 -1.5875,-1.5875 v -73.025 c 0,-0.87313 0.71437,-1.5875 1.5875,-1.5875 h 123.825 c 0.87312,0 1.5875,0.71437 1.5875,1.5875 v 73.025 c 0,0.87312 -0.71438,1.5875 -1.5875,1.5875 z m -11.1125,40.216667 c 0,3.51895 -2.83104,6.35 -6.35,6.35 h -88.9 c -3.51896,0 -6.35,-2.83105 -6.35,-6.35 0,-3.51896 2.83104,-6.35 6.35,-6.35 h 26.11437 l 4.92125,-14.76375 c 0.42333,-1.29646 1.64042,-2.16959 3.01625,-2.16959 h 20.82271 c 1.37583,0 2.59292,0.87313 3.01625,2.16959 l 4.92125,14.76375 h 26.08792 c 3.51896,0 6.35,2.83104 6.35,6.35 z"
       inkscape:connector-curvature="0"
       style="fill:#494b54;fill-opacity:1;stroke-width:0.26458332" />
    <path
       id="path839"
       d="m 285.97654,85.707114 v 4.762501 c 0,23.336225 19.94958,42.333315 44.45,42.333315 24.50042,0 44.45,-18.99709 44.45,-42.333315 V 64.090654 c 8.54604,-2.67229 14.73729,-10.63625 14.81667,-20.02895 0.0794,-11.48292 -9.15459,-21.06084 -20.66396,-21.32542 -11.90625,-0.26458 -21.66938,9.31333 -21.66938,21.16667 0,9.47208 6.21771,17.48895 14.81667,20.1877 v 26.378961 c 0,16.351225 -14.23459,29.633315 -31.75,29.633315 -17.51542,0 -31.75,-13.28209 -31.75,-29.633315 v -4.762501 c 17.99166,-3.04271 31.75,-18.7325 31.75,-37.57083 V 4.6123259 c 0,-1.48167 -1.03188,-2.77813 -2.48709,-3.09563 l -18.44146,-4.1010393 c -1.71979,-0.37041 -3.41312,0.68792 -3.78354,2.40770939 l -1.37583,6.19124981 c -0.37042,1.7197891 0.68792,3.4131282 2.40771,3.7835379 l 10.98021,2.4341703 v 35.56 c 0,13.99646 -11.16542,25.58521 -25.16188,25.7175 -14.10229,0.15875 -25.63812,-11.27125 -25.63812,-25.37354 v -35.8775 l 10.9802,-2.4341703 c 1.7198,-0.3704097 2.77813,-2.0637488 2.40771,-3.7835379 l -1.37583,-6.21770981 C 278.5682,-1.8964234 276.84841,-2.9547534 275.15508,-2.5843434 l -18.44146,4.1010393 c -1.45521,0.3175 -2.48708,1.61396 -2.48708,3.09563 V 48.136284 c 0,18.83833 13.75833,34.52812 31.75,37.57083 z m 82.55,-50.27083 c 4.65667,0 8.46667,3.81 8.46667,8.46667 0,4.65666 -3.81,8.46666 -8.46667,8.46666 -4.65667,0 -8.46667,-3.81 -8.46667,-8.46666 0,-4.65667 3.81,-8.46667 8.46667,-8.46667 z"
       inkscape:connector-curvature="0"
       style="fill:#00325f;fill-opacity:1;stroke-width:0.26458332" />
  </g>
</svg>
